<?xml version="1.0" standalone="no"?>
<!DOCTYPE svg PUBLIC "-//W3C//DTD SVG 20010904//EN" "http://www.w3.org/TR/2001/REC-SVG-20010904/DTD/svg10.dtd">
<!-- Created using Krita: https://krita.org -->
<svg xmlns="http://www.w3.org/2000/svg" 
    xmlns:xlink="http://www.w3.org/1999/xlink"
    xmlns:krita="http://krita.org/namespaces/svg/krita"
    xmlns:sodipodi="http://sodipodi.sourceforge.net/DTD/sodipodi-0.dtd"
    width="92.016pt"
    height="92.016pt"
    viewBox="0 0 92.016 92.016">
<defs>
  <linearGradient id="gradient0" gradientUnits="objectBoundingBox" x1="0" y1="0" x2="1" y2="1" spreadMethod="pad">
   <stop stop-color="#b02115" offset="0" stop-opacity="1"/>
   <stop stop-color="#e54625" offset="1" stop-opacity="1"/>
  </linearGradient>
 </defs>
<path id="shape0" transform="translate(-0.00128866634814795, 0.11333048099127)" fill="url(#gradient0)" stroke-opacity="0" stroke="#000000" stroke-width="0" stroke-linecap="square" stroke-linejoin="bevel" d="M90.1573 41.8517L50.0373 1.73467C49.3027 0.999624 48.3873 0.470866 47.3836 0.2018C46.3799 -0.0672666 45.3227 -0.0672666 44.319 0.2018C43.3152 0.470866 42.3999 0.999624 41.6653 1.73467L33.3373 10.0667L43.9033 20.6327C45.1454 20.2108 46.4811 20.145 47.7587 20.4425C49.0363 20.7401 50.2054 21.3894 51.1333 22.3167C52.0663 23.2507 52.7178 24.4287 53.0129 25.7155C53.3081 27.0022 53.235 28.3464 52.8023 29.5937L62.9893 39.7777C64.2368 39.3444 65.5816 39.2714 66.8687 39.5671C68.1559 39.8628 69.3339 40.5153 70.2673 41.4497C71.1412 42.3235 71.7699 43.4122 72.0898 44.6059C72.4097 45.7996 72.4097 47.0568 72.0898 48.2505C71.7699 49.4442 71.1412 50.5329 70.2673 51.4067C68.9459 52.7267 67.1526 53.469 65.2848 53.469C63.417 53.469 61.6237 52.7267 60.3023 51.4067C59.3204 50.4232 58.6512 49.1707 58.3793 47.8079C58.1075 46.445 58.2449 45.0316 58.7743 43.7467L49.2743 34.2497L49.2743 59.2467C50.616 59.9094 51.712 60.983 52.4024 62.3107C53.0927 63.6383 53.3421 65.1522 53.1141 66.6311C52.8862 68.1101 52.1924 69.4785 51.1343 70.5367C50.2605 71.4106 49.1718 72.0393 47.9781 72.3592C46.7844 72.6791 45.5272 72.6791 44.3335 72.3592C43.1398 72.0393 42.0511 71.4106 41.1773 70.5367C40.3031 69.6629 39.6743 68.5741 39.3544 67.3802C39.0344 66.1863 39.0344 64.929 39.3544 63.7351C39.6743 62.5413 40.3031 61.4525 41.1773 60.5787C41.8361 59.9185 42.6192 59.3954 43.4813 59.0397L43.4813 33.8127C42.3337 33.34 41.331 32.5725 40.5751 31.5881C39.8192 30.6037 39.3365 29.4369 39.1761 28.2062C39.0156 26.9755 39.183 25.724 39.6613 24.5787L29.2433 14.1587L1.73129 41.6637C0.623069 42.7741 1.92121e-16 44.2804 0 45.8492C-1.92121e-16 47.418 0.623069 48.9243 1.73129 50.0347L41.8533 90.1567C42.9636 91.2646 44.4697 91.8875 46.0383 91.8875C47.6068 91.8875 49.1129 91.2646 50.2233 90.1567L90.1573 50.2227C91.2655 49.1123 91.8886 47.606 91.8886 46.0372C91.8886 44.4684 91.2655 42.9621 90.1573 41.8517" sodipodi:nodetypes="ccccccccccccccccccccccccccccccccccccccccccccccc"/>
</svg>
