<?xml version="1.0" standalone="no"?>
<!DOCTYPE svg PUBLIC "-//W3C//DTD SVG 20010904//EN" "http://www.w3.org/TR/2001/REC-SVG-20010904/DTD/svg10.dtd">
<!-- Created using Krita: https://krita.org -->
<svg xmlns="http://www.w3.org/2000/svg" 
    xmlns:xlink="http://www.w3.org/1999/xlink"
    xmlns:krita="http://krita.org/namespaces/svg/krita"
    xmlns:sodipodi="http://sodipodi.sourceforge.net/DTD/sodipodi-0.dtd"
    width="48.024pt"
    height="48.024pt"
    viewBox="0 0 48.024 48.024">
<defs>
  <linearGradient id="gradient0" gradientTransform="matrix(45.74 0 0 48 1.13 -4.32069062129823e-05)" gradientUnits="objectBoundingBox" x1="0.0484914920420442" y1="0.967493138195662" x2="0.90215970413754" y2="0.0649678876302801" spreadMethod="pad">
   <stop stop-color="#676767" offset="0.516" stop-opacity="1"/>
   <stop stop-color="#9f9f9f" offset="0.5384" stop-opacity="1"/>
  </linearGradient>
  <linearGradient id="gradient1" gradientTransform="matrix(7.421 0 0 9.45 20.2904661618151 15.9987856788856)" gradientUnits="objectBoundingBox" x1="-2.73418918015277" y1="-1.64008051281936" x2="-2.61189801134607" y2="-1.5956300344641" spreadMethod="pad">
   <stop stop-color="#f7f107" offset="0" stop-opacity="1"/>
   <stop stop-color="#ffbb24" offset="0.838883972167969" stop-opacity="1"/>
  </linearGradient>
 </defs>
<path id="shape0" transform="translate(1.13, -4.41265560517934e-05)" fill="url(#gradient0)" fill-rule="evenodd" stroke-opacity="0" stroke="#000000" stroke-width="0" stroke-linecap="square" stroke-linejoin="bevel" d="M0.81 37.02C0.885 37.237 1.01 37.427 1.174 37.583C1.359 37.549 1.455 37.625 1.43 37.78C1.71 37.96 2.05 38.03 2.38 37.99L0.81 37.02L0.81 37.02L0.81 37.02L0.81 37.02L0.81 37.02ZM28.18 20.93L28.18 20.93C27.75 20.577 27.685 19.945 28.035 19.52L28.035 19.52C28.385 19.095 29.02 19.032 29.45 19.38L29.45 19.38C30.82 20.51 31.92 21.93 32.67 23.55C33.46 25.25 33.87 27.11 33.87 29C33.9 32.11 32.76 35.12 30.68 37.44C29.7 38.53 28.51 39.42 27.19 40.04C25.83 40.67 24.36 41 22.87 41C21.38 41 19.91 40.67 18.55 40.04C17.23 39.42 16.04 38.53 15.06 37.44C12.98 35.12 11.84 32.11 11.87 29C11.87 27.22 12.23 25.46 12.94 23.82C13.62 22.28 14.61 20.9 15.85 19.76L15.85 19.76C16.258 19.39 16.892 19.422 17.265 19.83L17.265 19.83C17.638 20.238 17.608 20.87 17.2 21.24L17.2 21.24C16.16 22.18 15.34 23.34 14.78 24.62C14.17 26 13.87 27.5 13.87 29C13.85 31.62 14.8 34.16 16.54 36.11C17.35 37 18.32 37.72 19.4 38.23C20.49 38.74 21.67 39 22.87 39C24.07 39 25.25 38.74 26.34 38.23C27.42 37.72 28.39 37 29.2 36.11C30.94 34.16 31.89 31.62 31.87 29C31.88 27.41 31.53 25.83 30.86 24.39C30.23 23.05 29.32 21.86 28.18 20.93L28.18 20.93L28.18 20.93L28.18 20.93ZM27.87 13C27.87 12.47 28.08 11.96 28.46 11.59C28.83 11.21 29.34 11 29.87 11C30.4 11 30.91 11.21 31.28 11.59C31.66 11.96 31.87 12.47 31.87 13C31.87 13.53 31.66 14.04 31.28 14.41C30.91 14.79 30.4 15 29.87 15C29.34 15 28.83 14.79 28.46 14.41C28.08 14.04 27.87 13.53 27.87 13L27.87 13L27.87 13ZM14.87 13C14.87 12.448 15.318 12 15.87 12C16.422 12 16.87 12.448 16.87 13C16.87 13.552 16.422 14 15.87 14C15.318 14 14.87 13.552 14.87 13ZM13.87 13C13.87 12.47 14.08 11.96 14.46 11.59C14.83 11.21 15.34 11 15.87 11C16.4 11 16.91 11.21 17.28 11.59C17.66 11.96 17.87 12.47 17.87 13C17.87 13.53 17.66 14.04 17.28 14.41C16.91 14.79 16.4 15 15.87 15C15.34 15 14.83 14.79 14.46 14.41C14.08 14.04 13.87 13.53 13.87 13L13.87 13L13.87 13L13.87 13ZM25.87 13C25.87 11.94 26.29 10.92 27.04 10.17C27.79 9.42004 28.81 9.00004 29.87 9.00004C30.93 9.00004 31.95 9.42004 32.7 10.17C33.45 10.92 33.87 11.94 33.87 13C33.87 14.06 33.45 15.08 32.7 15.83C31.95 16.58 30.93 17 29.87 17C28.81 17 27.79 16.58 27.04 15.83C26.29 15.08 25.87 14.06 25.87 13L25.87 13L25.87 13ZM11.87 13C11.87 11.94 12.29 10.92 13.04 10.17C13.79 9.42004 14.81 9.00004 15.87 9.00004C16.93 9.00004 17.95 9.42004 18.7 10.17C19.45 10.92 19.87 11.94 19.87 13C19.87 14.06 19.45 15.08 18.7 15.83C17.95 16.58 16.93 17 15.87 17C14.81 17 13.79 16.58 13.04 15.83C12.29 15.08 11.87 14.06 11.87 13L11.87 13L11.87 13L11.87 13ZM3.2 34.5C3.07 33.85 3 33.18 3 32.5C3 31.18 3.26 29.87 3.75 28.64C4.22 27.47 4.83 26.37 5.58 25.36C6.87 23.6 8.43 22.06 10.21 20.81C9.63 19.33 9.33 17.75 9.33 16.16C9.34 12.66 10.77 9.31004 13.28 6.87004C15.85 4.38004 19.29 2.99004 22.87 3.00004C26.45 2.99004 29.9 4.38004 32.46 6.87004C34.98 9.31004 36.4 12.66 36.41 16.16C36.41 17.4 36.23 18.64 35.87 19.83C35.69 20.43 35.9 21.09 36.41 21.46C37.83 22.58 39.09 23.89 40.16 25.35C40.91 26.37 41.52 27.47 41.99 28.64C42.48 29.87 42.74 31.18 42.74 32.5C42.74 33.17 42.67 33.84 42.54 34.5C42.18 34.27 41.86 34 41.57 33.69C41.02 33.12 40.56 32.48 40.19 31.79C39.89 31.25 39.3 30.94 38.69 31.01C38.08 31.09 37.57 31.53 37.42 32.12C36.56 35.38 34.58 38.23 31.84 40.19C33.4 39.98 34.98 40.24 36.38 40.94C36.72 41.11 37.04 41.32 37.33 41.56C37.52 41.72 37.68 41.91 37.8 42.13C37.86 42.24 37.9 42.36 37.9 42.48C37.89 42.7 37.81 42.91 37.66 43.08C37.34 43.46 36.94 43.76 36.49 43.98C35.83 44.32 35.13 44.57 34.41 44.72C33.53 44.91 32.64 45 31.74 45C30.56 45.01 29.39 44.84 28.26 44.5C27.81 44.36 27.37 44.18 26.96 43.96C26.44 43.69 25.98 43.31 25.61 42.84C24.71 43.01 23.79 43.1 22.87 43.11C21.95 43.1 21.03 43.01 20.13 42.84C19.76 43.31 19.3 43.69 18.78 43.96C18.37 44.18 17.93 44.36 17.48 44.5C16.35 44.84 15.18 45.01 14 45C13.1 45 12.21 44.91 11.33 44.72C10.61 44.57 9.91 44.32 9.25 43.98C8.8 43.77 8.4 43.46 8.08 43.08C7.94 42.91 7.85 42.7 7.84 42.48C7.84 42.35 7.88 42.23 7.94 42.13C8.06 41.91 8.22 41.72 8.41 41.56C8.7 41.32 9.02 41.11 9.36 40.94C10.77 40.24 12.35 39.98 13.9 40.19C11.16 38.23 9.18 35.38 8.33 32.12C8.17 31.53 7.66 31.09 7.06 31.01C6.45 30.94 5.85 31.25 5.56 31.79C5.18 32.48 4.72 33.12 4.18 33.69C3.88 34 3.56 34.27 3.2 34.5L3.2 34.5L3.2 34.5L3.2 34.5L3.2 34.5ZM43.35 37.99C43.11 37.97 42.88 37.92 42.65 37.84C42.14 37.69 41.66 37.48 41.21 37.21C40.54 36.81 39.93 36.32 39.39 35.76C39.37 35.73 39.34 35.71 39.32 35.68C38.9 36.6 38.4 37.48 37.83 38.31C38.34 38.57 38.83 38.9 39.27 39.27C39.73 39.66 40.13 40.13 40.42 40.67C40.74 41.23 40.9 41.86 40.9 42.5C40.88 43.43 40.54 44.32 39.94 45.03C39.36 45.71 38.64 46.27 37.83 46.67C36.95 47.12 36.01 47.45 35.04 47.65C33.96 47.89 32.85 48 31.75 48C30.27 48.01 28.8 47.8 27.38 47.37C26.75 47.17 26.14 46.92 25.56 46.61C25.23 46.44 24.91 46.24 24.61 46.01C24.03 46.07 23.45 46.1 22.87 46.11C22.29 46.1 21.71 46.07 21.13 46.01C20.83 46.24 20.51 46.44 20.18 46.61C19.6 46.92 18.99 47.17 18.36 47.37C16.94 47.8 15.47 48.01 13.99 48C12.89 48 11.78 47.89 10.7 47.65C9.73 47.45 8.79 47.12 7.91 46.67C7.1 46.27 6.38 45.71 5.8 45.03C5.2 44.32 4.86 43.43 4.84 42.5C4.84 41.86 5.01 41.23 5.32 40.67C5.62 40.13 6.01 39.66 6.47 39.27C6.92 38.9 7.4 38.57 7.91 38.31C7.34 37.48 6.84 36.6 6.42 35.68C6.4 35.71 6.37 35.73 6.35 35.76C5.81 36.33 5.2 36.81 4.53 37.21C4.07 37.48 3.59 37.69 3.09 37.84C2.86 37.92 2.62 37.97 2.38 37.99C1.98 38.04 1.58 38.02 1.18 37.93C1.05 37.63 0.92 37.33 0.81 37.02C0.28 35.57 0 34.04 0 32.5C0.01 30.8 0.33 29.11 0.96 27.53C1.53 26.13 2.27 24.8 3.17 23.58C4.2 22.16 5.4 20.86 6.74 19.71C6.47 18.55 6.33 17.36 6.33 16.16C6.34 11.85 8.1 7.72004 11.19 4.72004C14.32 1.68004 18.51 -0.00995587 22.87 4.41266e-05C27.23 -0.00995587 31.42 1.68004 34.55 4.72004C37.65 7.72004 39.4 11.85 39.41 16.16C39.41 17.36 39.27 18.55 39 19.71C40.34 20.86 41.54 22.16 42.58 23.58C43.48 24.8 44.21 26.12 44.78 27.53C45.41 29.11 45.73 30.79 45.74 32.5C45.74 34.04 45.46 35.57 44.93 37.02C44.82 37.33 43.76 38.04 43.35 37.99C43.69 38.03 44.02 37.96 44.31 37.78C44.6 37.6 44.81 37.34 44.93 37.02L43.35 37.99L43.35 37.99L43.35 37.99L43.35 37.99L43.35 37.99ZM28.87 13C28.87 12.448 29.318 12 29.87 12C30.422 12 30.87 12.448 30.87 13C30.87 13.552 30.422 14 29.87 14C29.318 14 28.87 13.552 28.87 13Z" sodipodi:nodetypes="ccccccccccccccccccccccccccccccccccccccccccccccccccccccccccccccccccccccccccccccccccccccccccccccccccccccccccccccccccccccccccccccccccccccccccccccccccccccccccccccccccccccccccccccccccccccccccccccccccccccccccccccccccccccccccc"/><path id="shape1" transform="translate(20.2896419066515, 15.9995306378533)" fill="url(#gradient1)" fill-rule="evenodd" stroke-opacity="0" stroke="#000000" stroke-width="0" stroke-linecap="square" stroke-linejoin="bevel" d="M1.73036 0.000469362L5.69036 0.000469362C6.13036 -0.00953064 6.56036 0.140469 6.89036 0.430469C7.23036 0.740469 7.43036 1.18047 7.42036 1.64047C7.42036 1.86047 7.37036 2.08047 7.29036 2.29047L5.00036 8.40047C4.93036 8.62047 4.81036 8.82047 4.66036 9.00047C4.43036 9.28047 4.08036 9.45047 3.71036 9.45047C3.34036 9.45047 2.99036 9.28047 2.76036 9.00047C2.61036 8.82047 2.49036 8.62047 2.42036 8.40047L0.130358 2.29047C0.0503581 2.08047 0.000358093 1.86047 0.000358093 1.64047C-0.00964191 1.18047 0.190358 0.740469 0.530358 0.430469C0.860358 0.140469 1.29036 -0.00953064 1.73036 0.000469362ZM3.71036 6.15047L2.15036 2.00047L5.27036 2.00047Z" sodipodi:nodetypes="cccccccccccccccccc"/><path id="shape2" transform="translate(44, 37)" fill="#878787" stroke-opacity="0" stroke="#000000" stroke-width="0" stroke-linecap="square" stroke-linejoin="bevel" d="M2.06 0C1.97 0.386 1.613 0.516 1.44 0.78C0.845 0.947 0.545 1.127 0 0.84Z" sodipodi:nodetypes="cccc"/><path id="shape3" transform="translate(1.94, 37.02)" fill="#686868" stroke-opacity="0" stroke="#000000" stroke-width="0" stroke-linecap="square" stroke-linejoin="bevel" d="M0 0C0.203 0.561 0.57 0.701 0.62 0.78C0.852 0.941 1.172 1.141 2.06 0.84Z" sodipodi:nodetypes="cccc"/>
</svg>
